STARTFONT 2.1
COMMENT Created by fdbbdf
FONT times10bi
SIZE 10 78 78
FONTBOUNDINGBOX 14 13 -1 -4
STARTPROPERTIES 4
Ownership "  Copyright (c) 1984 Adobe Systems, Inc.  /adobe/fonttools/bitmaps/stdfontvec.ps TI12.bits  TOTAL BITMAP BYTES 1207  GUIDELINES 9 0 6 0 0 -3 DONE  WIDTHERR -157 -93  "
FONT_ASCENT 9
FONT_DESCENT 4
DEFAULT_CHAR 32
ENDPROPERTIES
CHARS 95
STARTCHAR sp
ENCODING -1 32
SWIDTH 0 0
DWIDTH 3 0
BBX 0 0 0 0
BITMAP
ENDCHAR
STARTCHAR !
ENCODING -1 33
SWIDTH 0 0
DWIDTH 5 0
BBX 4 9 1 -1
BITMAP
3000
3000
3000
6000
6000
4000
0000
c000
c000
ENDCHAR
STARTCHAR "
ENCODING -1 34
SWIDTH 0 0
DWIDTH 7 0
BBX 5 3 3 5
BITMAP
d800
d800
9000
ENDCHAR
STARTCHAR #
ENCODING -1 35
SWIDTH 0 0
DWIDTH 7 0
BBX 7 9 0 -1
BITMAP
1400
1400
7e00
2800
2800
2800
fc00
5000
5000
ENDCHAR
STARTCHAR $
ENCODING -1 36
SWIDTH 0 0
DWIDTH 7 0
BBX 7 11 0 -2
BITMAP
0400
1e00
2a00
6800
7000
3800
1c00
2c00
a800
f000
4000
ENDCHAR
STARTCHAR %
ENCODING -1 37
SWIDTH 0 0
DWIDTH 12 0
BBX 11 9 1 -1
BITMAP
3100
6f00
ca00
d400
64c0
09a0
0b20
1340
1180
ENDCHAR
STARTCHAR &
ENCODING -1 38
SWIDTH 0 0
DWIDTH 9 0
BBX 9 9 0 -1
BITMAP
1c00
3600
3600
3c00
7980
ef00
c600
ee80
7b00
ENDCHAR
STARTCHAR '
ENCODING -1 39
SWIDTH 0 0
DWIDTH 4 0
BBX 3 3 2 5
BITMAP
6000
6000
c000
ENDCHAR
STARTCHAR (
ENCODING -1 40
SWIDTH 0 0
DWIDTH 6 0
BBX 5 11 1 -3
BITMAP
0800
3000
6000
6000
c000
c000
c000
c000
4000
6000
2000
ENDCHAR
STARTCHAR )
ENCODING -1 41
SWIDTH 0 0
DWIDTH 6 0
BBX 5 11 0 -3
BITMAP
2000
3000
1000
1800
1800
1800
1800
3000
3000
6000
8000
ENDCHAR
STARTCHAR *
ENCODING -1 42
SWIDTH 0 0
DWIDTH 6 0
BBX 5 5 1 3
BITMAP
2000
f800
7000
f800
2000
ENDCHAR
STARTCHAR +
ENCODING -1 43
SWIDTH 0 0
DWIDTH 7 0
BBX 5 5 1 1
BITMAP
2000
2000
f800
2000
2000
ENDCHAR
STARTCHAR ,
ENCODING -1 44
SWIDTH 0 0
DWIDTH 4 0
BBX 3 3 0 -2
BITMAP
6000
6000
c000
ENDCHAR
STARTCHAR -
ENCODING -1 45
SWIDTH 0 0
DWIDTH 6 0
BBX 4 1 1 3
BITMAP
f000
ENDCHAR
STARTCHAR .
ENCODING -1 46
SWIDTH 0 0
DWIDTH 4 0
BBX 2 2 1 -1
BITMAP
c000
c000
ENDCHAR
STARTCHAR /
ENCODING -1 47
SWIDTH 0 0
DWIDTH 5 0
BBX 4 9 0 -1
BITMAP
1000
1000
3000
2000
6000
4000
c000
8000
8000
ENDCHAR
STARTCHAR 0
ENCODING -1 48
SWIDTH 0 0
DWIDTH 7 0
BBX 6 9 0 -1
BITMAP
3800
6c00
6c00
6c00
cc00
d800
d800
d800
7000
ENDCHAR
STARTCHAR 1
ENCODING -1 49
SWIDTH 0 0
DWIDTH 6 0
BBX 5 9 0 -1
BITMAP
1800
7800
1800
3000
3000
3000
6000
6000
f000
ENDCHAR
STARTCHAR 2
ENCODING -1 50
SWIDTH 0 0
DWIDTH 6 0
BBX 6 9 0 -1
BITMAP
3800
4c00
0c00
0c00
1800
3000
6000
f800
f800
ENDCHAR
STARTCHAR 3
ENCODING -1 51
SWIDTH 0 0
DWIDTH 7 0
BBX 6 9 0 -1
BITMAP
3800
4c00
0c00
1800
3000
1800
1800
d800
7000
ENDCHAR
STARTCHAR 4
ENCODING -1 52
SWIDTH 0 0
DWIDTH 7 0
BBX 6 9 0 -1
BITMAP
0400
0c00
1c00
2800
4800
dc00
f800
1000
3800
ENDCHAR
STARTCHAR 5
ENCODING -1 53
SWIDTH 0 0
DWIDTH 7 0
BBX 7 9 0 -1
BITMAP
1e00
3c00
2000
7800
1c00
0c00
cc00
c800
7000
ENDCHAR
STARTCHAR 6
ENCODING -1 54
SWIDTH 0 0
DWIDTH 7 0
BBX 7 9 0 -1
BITMAP
0e00
3800
6000
7800
ec00
cc00
cc00
d800
7000
ENDCHAR
STARTCHAR 7
ENCODING -1 55
SWIDTH 0 0
DWIDTH 7 0
BBX 6 9 1 -1
BITMAP
7c00
fc00
8800
1800
3000
2000
6000
c000
8000
ENDCHAR
STARTCHAR 8
ENCODING -1 56
SWIDTH 0 0
DWIDTH 7 0
BBX 6 9 0 -1
BITMAP
3800
6400
6c00
3800
7800
dc00
8c00
d800
7000
ENDCHAR
STARTCHAR 9
ENCODING -1 57
SWIDTH 0 0
DWIDTH 7 0
BBX 7 9 -1 -1
BITMAP
1c00
3600
6600
6600
6e00
3c00
0c00
3800
e000
ENDCHAR
STARTCHAR :
ENCODING -1 58
SWIDTH 0 0
DWIDTH 5 0
BBX 3 6 1 -1
BITMAP
6000
6000
0000
0000
c000
c000
ENDCHAR
STARTCHAR ;
ENCODING -1 59
SWIDTH 0 0
DWIDTH 5 0
BBX 4 7 0 -2
BITMAP
3000
3000
0000
0000
6000
6000
c000
ENDCHAR
STARTCHAR <
ENCODING -1 60
SWIDTH 0 0
DWIDTH 8 0
BBX 7 6 1 0
BITMAP
0600
1c00
7000
c000
7000
1c00
ENDCHAR
STARTCHAR =
ENCODING -1 61
SWIDTH 0 0
DWIDTH 7 0
BBX 5 3 1 2
BITMAP
f800
0000
f800
ENDCHAR
STARTCHAR >
ENCODING -1 62
SWIDTH 0 0
DWIDTH 8 0
BBX 7 6 1 0
BITMAP
7000
1c00
0600
1c00
7000
c000
ENDCHAR
STARTCHAR ?
ENCODING -1 63
SWIDTH 0 0
DWIDTH 6 0
BBX 6 9 1 -1
BITMAP
3800
6c00
0c00
3800
6000
4000
0000
c000
c000
ENDCHAR
STARTCHAR @
ENCODING -1 64
SWIDTH 0 0
DWIDTH 12 0
BBX 10 10 1 -2
BITMAP
1f00
3180
60c0
4f40
db40
db40
db40
cd80
6000
3e00
ENDCHAR
STARTCHAR A
ENCODING -1 65
SWIDTH 0 0
DWIDTH 9 0
BBX 8 9 0 -1
BITMAP
0600
0e00
0e00
1600
1600
3e00
2600
4600
ef00
ENDCHAR
STARTCHAR B
ENCODING -1 66
SWIDTH 0 0
DWIDTH 9 0
BBX 9 9 0 -1
BITMAP
3f00
1980
1980
3300
3e00
3300
6300
6600
fc00
ENDCHAR
STARTCHAR C
ENCODING -1 67
SWIDTH 0 0
DWIDTH 9 0
BBX 8 9 1 -1
BITMAP
1f00
3300
6200
6000
c000
c000
c200
e400
7800
ENDCHAR
STARTCHAR D
ENCODING -1 68
SWIDTH 0 0
DWIDTH 10 0
BBX 9 9 0 -1
BITMAP
3e00
1b00
1980
3180
3180
3180
6300
6600
f800
ENDCHAR
STARTCHAR E
ENCODING -1 69
SWIDTH 0 0
DWIDTH 9 0
BBX 9 9 0 -1
BITMAP
3f80
1980
1800
3200
3e00
3400
6000
6300
fe00
ENDCHAR
STARTCHAR F
ENCODING -1 70
SWIDTH 0 0
DWIDTH 9 0
BBX 9 9 0 -1
BITMAP
3f80
1980
1800
3200
3e00
3400
6000
6000
f000
ENDCHAR
STARTCHAR G
ENCODING -1 71
SWIDTH 0 0
DWIDTH 10 0
BBX 8 9 1 -1
BITMAP
1f00
3300
6200
6000
c000
cf00
c600
cc00
7c00
ENDCHAR
STARTCHAR H
ENCODING -1 72
SWIDTH 0 0
DWIDTH 11 0
BBX 11 9 0 -1
BITMAP
3de0
18c0
18c0
3180
3f80
3180
6300
6300
e780
ENDCHAR
STARTCHAR I
ENCODING -1 73
SWIDTH 0 0
DWIDTH 6 0
BBX 6 9 0 -1
BITMAP
3c00
1800
1800
3000
3000
3000
6000
6000
f000
ENDCHAR
STARTCHAR J
ENCODING -1 74
SWIDTH 0 0
DWIDTH 6 0
BBX 8 9 -1 -1
BITMAP
0f00
0600
0c00
0c00
0c00
1800
d800
d800
7000
ENDCHAR
STARTCHAR K
ENCODING -1 75
SWIDTH 0 0
DWIDTH 9 0
BBX 10 9 -1 -1
BITMAP
3dc0
1900
1a00
3400
3c00
3600
6600
6300
f780
ENDCHAR
STARTCHAR L
ENCODING -1 76
SWIDTH 0 0
DWIDTH 9 0
BBX 8 9 0 -1
BITMAP
3c00
1800
1800
3000
3000
3000
6000
6300
fe00
ENDCHAR
STARTCHAR M
ENCODING -1 77
SWIDTH 0 0
DWIDTH 12 0
BBX 12 9 0 -1
BITMAP
3870
18e0
18e0
3940
2ac0
2ec0
4d80
4d80
e9c0
ENDCHAR
STARTCHAR N
ENCODING -1 78
SWIDTH 0 0
DWIDTH 9 0
BBX 10 9 0 -1
BITMAP
39c0
1880
1880
3d00
2d00
2d00
4e00
4600
e600
ENDCHAR
STARTCHAR O
ENCODING -1 79
SWIDTH 0 0
DWIDTH 10 0
BBX 8 9 1 -1
BITMAP
1e00
3300
6300
6300
c300
c600
c600
cc00
7800
ENDCHAR
STARTCHAR P
ENCODING -1 80
SWIDTH 0 0
DWIDTH 10 0
BBX 9 9 0 -1
BITMAP
3f00
1980
1980
3380
3f00
3000
6000
6000
f000
ENDCHAR
STARTCHAR Q
ENCODING -1 81
SWIDTH 0 0
DWIDTH 10 0
BBX 8 12 1 -4
BITMAP
1e00
3300
6300
6300
c300
c600
c600
cc00
7800
2000
7600
dc00
ENDCHAR
STARTCHAR R
ENCODING -1 82
SWIDTH 0 0
DWIDTH 10 0
BBX 9 9 0 -1
BITMAP
3f00
1980
1180
3180
3f00
3600
6600
6300
f380
ENDCHAR
STARTCHAR S
ENCODING -1 83
SWIDTH 0 0
DWIDTH 8 0
BBX 7 9 1 -1
BITMAP
3a00
6600
6200
7000
3800
1c00
8c00
cc00
b800
ENDCHAR
STARTCHAR T
ENCODING -1 84
SWIDTH 0 0
DWIDTH 8 0
BBX 8 9 1 -1
BITMAP
7f00
da00
1800
3000
3000
3000
6000
6000
f000
ENDCHAR
STARTCHAR U
ENCODING -1 85
SWIDTH 0 0
DWIDTH 10 0
BBX 10 9 1 -1
BITMAP
7bc0
3180
3180
6300
6300
6300
c600
c600
7c00
ENDCHAR
STARTCHAR V
ENCODING -1 86
SWIDTH 0 0
DWIDTH 9 0
BBX 9 9 1 -1
BITMAP
f380
6100
6200
6400
6400
6800
7000
6000
4000
ENDCHAR
STARTCHAR W
ENCODING -1 87
SWIDTH 0 0
DWIDTH 12 0
BBX 12 9 1 -1
BITMAP
ef70
6660
6640
6ec0
6a80
6a80
7300
6300
6300
ENDCHAR
STARTCHAR X
ENCODING -1 88
SWIDTH 0 0
DWIDTH 10 0
BBX 10 9 -1 -1
BITMAP
79c0
3080
1900
1e00
0c00
1e00
2600
4300
e780
ENDCHAR
STARTCHAR Y
ENCODING -1 89
SWIDTH 0 0
DWIDTH 8 0
BBX 9 9 0 -1
BITMAP
7b80
3100
3200
3400
1800
1800
3000
3000
f800
ENDCHAR
STARTCHAR Z
ENCODING -1 90
SWIDTH 0 0
DWIDTH 8 0
BBX 8 9 0 -1
BITMAP
3f00
6300
0700
0e00
1c00
3800
7000
e200
fe00
ENDCHAR
STARTCHAR [
ENCODING -1 91
SWIDTH 0 0
DWIDTH 6 0
BBX 7 11 0 -3
BITMAP
1e00
1800
1800
3000
3000
3000
6000
6000
6000
c000
f000
ENDCHAR
STARTCHAR \
ENCODING -1 92
SWIDTH 0 0
DWIDTH 5 0
BBX 4 9 0 -1
BITMAP
8000
8000
c000
4000
6000
2000
3000
1000
1000
ENDCHAR
STARTCHAR ]
ENCODING -1 93
SWIDTH 0 0
DWIDTH 7 0
BBX 7 11 0 -3
BITMAP
1e00
0600
0c00
0c00
0c00
1800
1800
1800
3000
3000
f000
ENDCHAR
STARTCHAR ^
ENCODING -1 94
SWIDTH 0 0
DWIDTH 8 0
BBX 6 5 1 3
BITMAP
1000
3800
6800
cc00
8400
ENDCHAR
STARTCHAR _
ENCODING -1 95
SWIDTH 0 0
DWIDTH 6 0
BBX 6 1 0 -3
BITMAP
fc00
ENDCHAR
STARTCHAR `
ENCODING -1 96
SWIDTH 0 0
DWIDTH 5 0
BBX 3 3 2 5
BITMAP
6000
c000
c000
ENDCHAR
STARTCHAR a
ENCODING -1 97
SWIDTH 0 0
DWIDTH 8 0
BBX 7 6 0 -1
BITMAP
3600
6c00
cc00
d800
da00
6c00
ENDCHAR
STARTCHAR b
ENCODING -1 98
SWIDTH 0 0
DWIDTH 7 0
BBX 6 9 0 -1
BITMAP
7000
3000
2000
7800
6c00
4c00
cc00
d800
f000
ENDCHAR
STARTCHAR c
ENCODING -1 99
SWIDTH 0 0
DWIDTH 6 0
BBX 5 6 0 -1
BITMAP
3800
5800
c000
c000
c800
7000
ENDCHAR
STARTCHAR d
ENCODING -1 100
SWIDTH 0 0
DWIDTH 7 0
BBX 7 9 0 -1
BITMAP
0e00
0600
0400
3c00
6c00
cc00
c800
d800
6c00
ENDCHAR
STARTCHAR e
ENCODING -1 101
SWIDTH 0 0
DWIDTH 7 0
BBX 6 6 0 -1
BITMAP
3800
4c00
f800
c000
c800
7000
ENDCHAR
STARTCHAR f
ENCODING -1 102
SWIDTH 0 0
DWIDTH 6 0
BBX 7 12 -1 -4
BITMAP
0600
0a00
1800
3e00
1800
1800
3000
3000
3000
2000
e000
c000
ENDCHAR
STARTCHAR g
ENCODING -1 103
SWIDTH 0 0
DWIDTH 7 0
BBX 7 9 -1 -4
BITMAP
3e00
6c00
6c00
3800
4000
7800
8c00
cc00
7800
ENDCHAR
STARTCHAR h
ENCODING -1 104
SWIDTH 0 0
DWIDTH 8 0
BBX 6 9 0 -1
BITMAP
7000
3000
2000
6800
7c00
6c00
cc00
d800
dc00
ENDCHAR
STARTCHAR i
ENCODING -1 105
SWIDTH 0 0
DWIDTH 4 0
BBX 4 8 0 -1
BITMAP
3000
0000
e000
6000
6000
c000
c000
e000
ENDCHAR
STARTCHAR j
ENCODING -1 106
SWIDTH 0 0
DWIDTH 6 0
BBX 6 12 -1 -4
BITMAP
0000
0c00
0000
1c00
0c00
1800
1800
1800
3000
3000
b000
6000
ENDCHAR
STARTCHAR k
ENCODING -1 107
SWIDTH 0 0
DWIDTH 9 0
BBX 8 9 0 -1
BITMAP
3800
1800
1300
3400
3800
7c00
6c00
6d00
c600
ENDCHAR
STARTCHAR l
ENCODING -1 108
SWIDTH 0 0
DWIDTH 5 0
BBX 4 9 0 -1
BITMAP
7000
3000
2000
6000
6000
4000
c000
d000
6000
ENDCHAR
STARTCHAR m
ENCODING -1 109
SWIDTH 0 0
DWIDTH 11 0
BBX 10 6 0 -1
BITMAP
db00
6d80
6d80
db00
db40
db80
ENDCHAR
STARTCHAR n
ENCODING -1 110
SWIDTH 0 0
DWIDTH 7 0
BBX 6 6 0 -1
BITMAP
d800
6c00
6c00
d800
d800
dc00
ENDCHAR
STARTCHAR o
ENCODING -1 111
SWIDTH 0 0
DWIDTH 7 0
BBX 6 6 0 -1
BITMAP
3800
6c00
cc00
cc00
d800
7000
ENDCHAR
STARTCHAR p
ENCODING -1 112
SWIDTH 0 0
DWIDTH 8 0
BBX 8 9 -1 -4
BITMAP
3e00
1b00
1b00
3300
3600
3c00
6000
6000
f000
ENDCHAR
STARTCHAR q
ENCODING -1 113
SWIDTH 0 0
DWIDTH 8 0
BBX 7 9 0 -4
BITMAP
3600
6c00
cc00
d800
d800
7800
1000
3000
7800
ENDCHAR
STARTCHAR r
ENCODING -1 114
SWIDTH 0 0
DWIDTH 6 0
BBX 5 6 0 -1
BITMAP
d800
6800
6000
c000
c000
c000
ENDCHAR
STARTCHAR s
ENCODING -1 115
SWIDTH 0 0
DWIDTH 7 0
BBX 6 6 0 -1
BITMAP
3c00
6400
3000
1800
d800
f000
ENDCHAR
STARTCHAR t
ENCODING -1 116
SWIDTH 0 0
DWIDTH 5 0
BBX 4 8 0 -1
BITMAP
2000
6000
f000
4000
4000
c000
d000
6000
ENDCHAR
STARTCHAR u
ENCODING -1 117
SWIDTH 0 0
DWIDTH 8 0
BBX 7 6 0 -1
BITMAP
e600
6600
6c00
cc00
d800
6c00
ENDCHAR
STARTCHAR v
ENCODING -1 118
SWIDTH 0 0
DWIDTH 7 0
BBX 6 6 0 -1
BITMAP
ec00
6400
6800
6800
7000
6000
ENDCHAR
STARTCHAR w
ENCODING -1 119
SWIDTH 0 0
DWIDTH 9 0
BBX 9 6 0 -1
BITMAP
ed80
6d00
6d00
7e00
6c00
4800
ENDCHAR
STARTCHAR x
ENCODING -1 120
SWIDTH 0 0
DWIDTH 7 0
BBX 6 6 0 -1
BITMAP
6c00
6800
3000
3000
5800
dc00
ENDCHAR
STARTCHAR y
ENCODING -1 121
SWIDTH 0 0
DWIDTH 7 0
BBX 7 9 -1 -4
BITMAP
7600
3600
3200
3400
1400
1800
0800
d000
e000
ENDCHAR
STARTCHAR z
ENCODING -1 122
SWIDTH 0 0
DWIDTH 7 0
BBX 6 7 0 -2
BITMAP
7c00
9800
3000
6000
e000
d400
0c00
ENDCHAR
STARTCHAR {
ENCODING -1 123
SWIDTH 0 0
DWIDTH 6 0
BBX 6 11 1 -3
BITMAP
1c00
3000
3000
3000
6000
c000
6000
6000
c000
c000
7000
ENDCHAR
STARTCHAR |
ENCODING -1 124
SWIDTH 0 0
DWIDTH 5 0
BBX 5 12 0 -4
BITMAP
1800
1800
1800
3000
3000
3000
6000
6000
6000
c000
c000
c000
ENDCHAR
STARTCHAR }
ENCODING -1 125
SWIDTH 0 0
DWIDTH 6 0
BBX 6 11 0 -3
BITMAP
3800
0c00
0c00
1800
1800
0c00
1800
3000
3000
3000
e000
ENDCHAR
STARTCHAR ~
ENCODING -1 126
SWIDTH 0 0
DWIDTH 9 0
BBX 7 2 1 2
BITMAP
7200
9c00
ENDCHAR
ENDFONT
